<svg xmlns="http://www.w3.org/2000/svg" xmlns:xlink="http://www.w3.org/1999/xlink" width="2000" height="1500" viewBox="0 0 2000 1500"><defs><linearGradient id="a" x1="0.5" y1="0.05" x2="0.5" y2="1.213" gradientUnits="objectBoundingBox"><stop offset="0" stop-color="#fff"/><stop offset="1" stop-color="#fff" stop-opacity="0"/></linearGradient><linearGradient id="b" x1="1" y1="0.5" x2="-0.766" y2="0.5" gradientUnits="objectBoundingBox"><stop offset="0" stop-color="#ecac81"/><stop offset="1" stop-color="#f16255"/></linearGradient><linearGradient id="c" x1="0" x2="1.594" xlink:href="#b"/><linearGradient id="d" x1="0.5" x2="0.5" y2="1" gradientUnits="objectBoundingBox"><stop offset="0" stop-color="#f16255"/><stop offset="1" stop-color="#ecac81"/></linearGradient><linearGradient id="g" x1="0.715" y1="-0.205" x2="-0.442" y2="1.742" xlink:href="#b"/><linearGradient id="h" x1="0.285" y1="-0.205" x2="1.442" y2="1.742" xlink:href="#b"/><clipPath id="j"><rect width="2000" height="1500"/></clipPath></defs><g id="i" clip-path="url(#j)"><path d="M451.5,265.332h-.491C434.36,265.283,0,264.025,0,265.333,0,47.984,279.143,120,366.666,120c27.746,0,46.426-12.059,58.854-28.343,18.938-24.811,24.1-59.438,25.489-78.232V2.535c.02,1.654.082,4.063.246,7.07.164-3.007.225-5.417.246-7.071V13.426c1.388,18.793,6.55,53.42,25.488,78.231C489.417,107.941,508.1,120,535.842,120c87.523,0,366.667-72.016,366.667,145.334C902.509,264.025,468.149,265.283,451.5,265.332ZM451.009,0V2.535C450.989.9,451.009,0,451.009,0Zm.491,0s.02.9,0,2.534Z" transform="translate(588 962.667)" fill="url(#a)"/><g transform="translate(-343 401)"><line y1="152.818" x2="152.818" transform="translate(879.682 674.091)" fill="none" stroke="#ecac81" stroke-linecap="round" stroke-width="10"/><line x1="152.818" y1="152.818" transform="translate(1032.5 674.091)" fill="none" stroke="#ecac81" stroke-linecap="round" stroke-width="10"/></g><g transform="translate(-306 401)"><line x1="152.818" y1="152.818" transform="translate(1032.5 674.091)" stroke-dasharray="25" stroke="#2abb9b" stroke-linecap="round" stroke-width="10" fill="none"/></g><g transform="translate(98 -68.32)"><g transform="translate(536.682 1075.091)"><line y1="221.138" x2="221.138" transform="translate(0)" fill="none" stroke="#f16255" stroke-linecap="round" stroke-width="10"/><line x1="221.138" y1="221.138" transform="translate(221.138)" fill="none" stroke="#f16255" stroke-linecap="round" stroke-width="10"/></g><g transform="translate(811.362 1075.091)"><line x1="221.138" y1="221.138" fill="none" stroke="#2abb9b" stroke-linecap="round" stroke-width="10" stroke-dasharray="25"/></g></g><g transform="translate(681.954 26.293)"><g transform="translate(536.682 1075.091)"><line y1="135.526" x2="135.526" transform="translate(0)" fill="none" stroke="#f16255" stroke-linecap="round" stroke-width="10"/><line x1="135.526" y1="135.526" transform="translate(135.526)" fill="none" stroke="#f16255" stroke-linecap="round" stroke-width="10"/></g><g transform="translate(705.02 1075.091)"><line x1="135.526" y1="135.526" fill="none" stroke="#2abb9b" stroke-linecap="round" stroke-width="10" stroke-dasharray="25"/></g></g><g transform="translate(407.898 -12.981)"><g transform="translate(536.682 1075.091)"><line y1="174.799" x2="174.799" transform="translate(0)" fill="none" stroke="#ecac81" stroke-linecap="round" stroke-width="10"/><line x1="174.799" y1="174.799" transform="translate(174.799)" fill="none" stroke="#ecac81" stroke-linecap="round" stroke-width="10"/></g><g transform="translate(753.803 1075.091)"><line x1="174.799" y1="174.799" fill="none" stroke="#2abb9b" stroke-linecap="round" stroke-width="10" stroke-dasharray="25"/></g></g><g transform="translate(41.667 28)"><rect width="1154" height="24" rx="12" transform="translate(401.333 1200)" fill="#2abb9b"/><rect width="171" height="24" rx="12" transform="translate(213.333 1200)" fill="url(#b)"/><rect width="24" height="24" rx="12" transform="translate(1572.333 1200)" fill="#f16255"/><rect width="90" height="24" rx="12" transform="translate(1613.333 1200)" fill="url(#c)"/></g><g transform="translate(474.775 333.82)"><circle cx="76" cy="76" r="76" transform="translate(0.225 0.18)" fill="url(#d)"/><g transform="translate(11.225 11.18)" fill="none" stroke="#000" stroke-width="1"><circle cx="81.5" cy="81.5" r="81.5" stroke="none"/><circle cx="81.5" cy="81.5" r="81" fill="none"/></g></g><g transform="translate(366.499 463.913)"><circle cx="38" cy="38" r="38" transform="translate(-0.499 11.087)" fill="#2abb9b"/><g transform="translate(10.501 0.087)" fill="none" stroke="#000" stroke-width="1"><ellipse cx="38" cy="38.5" rx="38" ry="38.5" stroke="none"/><ellipse cx="38" cy="38.5" rx="37.5" ry="38" fill="none"/></g></g><g transform="matrix(0.035, 0.999, -0.999, 0.035, 1740.715, 650.306)"><ellipse cx="53.619" cy="53.619" rx="53.619" ry="53.619" transform="translate(0 0)" fill="url(#d)"/><g transform="translate(7.771 7.771)" fill="none" stroke="#000" stroke-width="1"><ellipse cx="57.504" cy="57.504" rx="57.504" ry="57.504" stroke="none"/><ellipse cx="57.504" cy="57.504" rx="57.004" ry="57.004" fill="none"/></g></g><g transform="matrix(0.035, 0.999, -0.999, 0.035, 1645.881, 576.898)"><ellipse cx="26.939" cy="26.68" rx="26.939" ry="26.68" transform="translate(0 7.771)" fill="url(#d)"/><g transform="translate(7.771 0)" fill="none" stroke="#000" stroke-width="1"><ellipse cx="26.68" cy="26.939" rx="26.68" ry="26.939" stroke="none"/><ellipse cx="26.68" cy="26.939" rx="26.18" ry="26.439" fill="none"/></g></g><g transform="translate(1333.845 224.354) rotate(-47)"><g transform="translate(-0.441 -3.652)" fill="none" stroke="#2abb9b" stroke-width="20"><rect width="202.737" height="23.99" rx="11.995" stroke="none"/><rect x="10" y="10" width="182.737" height="3.99" rx="1.995" fill="none"/></g><rect width="101.603" height="23.519" rx="11.76" transform="translate(82.817 38.212)" fill="#2abb9b"/><g transform="translate(77.173 32.097)" fill="none" stroke="#000" stroke-width="1"><rect width="95.488" height="23.99" rx="11.995" stroke="none"/><rect x="0.5" y="0.5" width="94.488" height="22.99" rx="11.495" fill="none"/></g><ellipse cx="11.419" cy="11.949" rx="11.419" ry="11.949" transform="translate(235.972 4.912) rotate(135)" fill="#2abb9b"/></g><g transform="translate(0 -32)"><path d="M905.694,877.9l-8.682-63.237L826,895.009l31.359,94.337h39.394l-13.736-79.824Z" transform="translate(29 -18.784)" fill="url(#g)"/><path d="M826,877.9l8.682-63.237,71.012,80.342-31.359,94.337H834.941l13.736-79.824Z" transform="translate(320.806 -19.229)" fill="url(#h)"/><path d="M1036,677.333l-160,152,61.333,397.333h192l57.333-397.333Z" transform="translate(7 -302)" fill="none" stroke="#f16255" stroke-linecap="round" stroke-width="20"/><line x2="252" y2="134" transform="translate(905.5 670.5)" fill="none" stroke="#f16255" stroke-width="5"/><line y1="120" x2="196" transform="translate(953.5 796.5)" fill="none" stroke="#f16255" stroke-width="5"/><line x2="115" y2="56" transform="translate(928.5 804.5)" fill="none" stroke="#f16255" stroke-width="5"/><line y1="142" x2="281" transform="translate(905.5 528.5)" fill="none" stroke="#f16255" stroke-width="5"/><line y1="90" x2="157" transform="translate(1016.5 640.5)" fill="none" stroke="#f16255" stroke-width="5"/><line x2="149" y2="75" transform="translate(889.5 528.5)" fill="none" stroke="#f16255" stroke-width="5"/><line y2="90" transform="translate(1038.5 513.5)" fill="none" stroke="#f16255" stroke-width="5"/><line x2="86" y2="49" transform="translate(953.5 466.5)" fill="none" stroke="#f16255" stroke-width="5"/><line x1="73" y2="63" transform="translate(1039.5 452.5)" fill="none" stroke="#f16255" stroke-width="5"/></g></g></svg>